<svg width="249" height="86" viewBox="0 0 249 86" fill="none" xmlns="http://www.w3.org/2000/svg">
<path d="M121.881 22.0878V64.744H113.121V22.0878H121.881ZM135.006 22.0878V28.9725H100.201V22.0878H135.006Z" fill="#065FB1"/>
<path d="M145.875 39.9589V64.744H137.438V33.0448H145.377L145.875 39.9589ZM155.426 32.8397L155.279 40.662C154.869 40.6034 154.371 40.5546 153.785 40.5155C153.219 40.4569 152.701 40.4276 152.232 40.4276C151.041 40.4276 150.006 40.5839 149.127 40.8964C148.268 41.1893 147.545 41.6288 146.959 42.2147C146.393 42.8007 145.963 43.5135 145.67 44.3534C145.396 45.1932 145.24 46.1503 145.201 47.2245L143.502 46.6971C143.502 44.6464 143.707 42.7616 144.117 41.0428C144.527 39.3046 145.123 37.7909 145.904 36.5018C146.705 35.2128 147.682 34.2167 148.834 33.5135C149.986 32.8104 151.305 32.4589 152.789 32.4589C153.258 32.4589 153.736 32.4979 154.225 32.576C154.713 32.6346 155.113 32.7225 155.426 32.8397Z" fill="#065FB1"/>
<path d="M168.316 33.0448V64.744H159.85V33.0448H168.316ZM159.322 24.7831C159.322 23.5526 159.752 22.537 160.611 21.7362C161.471 20.9354 162.623 20.535 164.068 20.535C165.494 20.535 166.637 20.9354 167.496 21.7362C168.375 22.537 168.814 23.5526 168.814 24.7831C168.814 26.0135 168.375 27.0292 167.496 27.83C166.637 28.6307 165.494 29.0311 164.068 29.0311C162.623 29.0311 161.471 28.6307 160.611 27.83C159.752 27.0292 159.322 26.0135 159.322 24.7831Z" fill="#065FB1"/>
<path d="M186.07 58.5917L193.102 33.0448H201.92L191.227 64.744H185.895L186.07 58.5917ZM181.236 33.0448L188.297 58.621L188.443 64.744H183.082L172.389 33.0448H181.236Z" fill="#065FB1"/>
<path d="M214.605 33.0448V64.744H206.139V33.0448H214.605ZM205.611 24.7831C205.611 23.5526 206.041 22.537 206.9 21.7362C207.76 20.9354 208.912 20.535 210.357 20.535C211.783 20.535 212.926 20.9354 213.785 21.7362C214.664 22.537 215.104 23.5526 215.104 24.7831C215.104 26.0135 214.664 27.0292 213.785 27.83C212.926 28.6307 211.783 29.0311 210.357 29.0311C208.912 29.0311 207.76 28.6307 206.9 27.83C206.041 27.0292 205.611 26.0135 205.611 24.7831Z" fill="#065FB1"/>
<path d="M238.688 57.5956V43.4745C238.688 42.4589 238.521 41.5897 238.189 40.8671C237.857 40.1249 237.34 39.5487 236.637 39.1385C235.953 38.7284 235.064 38.5233 233.971 38.5233C233.033 38.5233 232.223 38.6893 231.539 39.0214C230.855 39.3339 230.328 39.7928 229.957 40.3983C229.586 40.9843 229.4 41.6776 229.4 42.4784H220.963C220.963 41.1307 221.275 39.8514 221.9 38.6405C222.525 37.4296 223.434 36.3651 224.625 35.4471C225.816 34.5096 227.232 33.7772 228.873 33.2499C230.533 32.7225 232.389 32.4589 234.439 32.4589C236.9 32.4589 239.088 32.869 241.002 33.6893C242.916 34.5096 244.42 35.7401 245.514 37.3807C246.627 39.0214 247.184 41.0721 247.184 43.5331V57.0975C247.184 58.8358 247.291 60.2616 247.506 61.3749C247.721 62.4686 248.033 63.4257 248.443 64.246V64.744H239.918C239.508 63.8846 239.195 62.8104 238.98 61.5214C238.785 60.2128 238.688 58.9042 238.688 57.5956ZM239.801 45.4374L239.859 50.2128H235.143C234.029 50.2128 233.062 50.3397 232.242 50.5936C231.422 50.8475 230.748 51.2089 230.221 51.6776C229.693 52.1268 229.303 52.6542 229.049 53.2596C228.814 53.8651 228.697 54.5292 228.697 55.2518C228.697 55.9745 228.863 56.6288 229.195 57.2147C229.527 57.7811 230.006 58.2303 230.631 58.5624C231.256 58.8749 231.988 59.0311 232.828 59.0311C234.098 59.0311 235.201 58.7772 236.139 58.2694C237.076 57.7616 237.799 57.1366 238.307 56.3944C238.834 55.6522 239.107 54.9491 239.127 54.285L241.354 57.8593C241.041 58.66 240.611 59.4901 240.064 60.3495C239.537 61.2089 238.863 62.0194 238.043 62.7811C237.223 63.5233 236.236 64.1385 235.084 64.6268C233.932 65.0956 232.564 65.33 230.982 65.33C228.971 65.33 227.145 64.9296 225.504 64.1288C223.883 63.3085 222.594 62.1854 221.637 60.7596C220.699 59.3143 220.23 57.6737 220.23 55.8378C220.23 54.1776 220.543 52.703 221.168 51.4139C221.793 50.1249 222.711 49.0409 223.922 48.162C225.152 47.2635 226.686 46.5897 228.521 46.1405C230.357 45.6718 232.486 45.4374 234.908 45.4374H239.801Z" fill="#065FB1"/>
<rect x="0.127136" y="0.36499" width="85" height="85" rx="42.5" fill="#065FB1"/>
<path d="M55.8571 58.255C55.3171 58.255 54.7771 58.035 54.3871 57.605C53.6371 56.795 53.6871 55.525 54.5071 54.775C58.6171 50.985 60.3071 47.075 59.3771 43.445C58.2571 39.095 53.4571 35.275 47.1371 33.715C41.5271 32.335 33.7971 32.755 28.9571 38.115C28.2171 38.935 26.9571 38.995 26.1371 38.255C25.3171 37.515 25.2571 36.245 25.9971 35.435C31.0371 29.855 39.5071 27.715 48.0971 29.835C55.8271 31.745 61.7771 36.695 63.2571 42.455C64.1771 46.035 63.8771 51.595 57.2271 57.715C56.8471 58.065 56.3571 58.245 55.8771 58.245L55.8571 58.255Z" fill="white"/>
<path d="M39.2571 60.875C33.1471 60.875 29.1471 59.055 27.3871 55.455C25.1671 50.925 27.4671 45.275 29.5571 42.575C32.1171 39.275 36.5571 37.415 41.1771 37.745C46.7471 38.135 51.7871 41.595 54.9971 47.225C55.5471 48.185 55.2071 49.405 54.2571 49.955C53.2971 50.505 52.0771 50.165 51.5271 49.205C48.0471 43.105 43.3671 41.905 40.8971 41.725C37.6071 41.485 34.4671 42.755 32.7171 45.015C31.2371 46.925 29.6571 51.005 30.9771 53.685C32.2671 56.315 36.1971 56.875 39.2571 56.875C40.3571 56.875 41.2571 57.775 41.2571 58.875C41.2571 59.975 40.3571 60.875 39.2571 60.875V60.875Z" fill="white"/>
<path d="M45.6172 69.125C45.1772 69.125 44.7372 68.985 44.3772 68.695C43.5072 68.005 43.3672 66.745 44.0572 65.885C45.9672 63.485 46.5572 60.435 45.6772 57.505C44.8272 54.665 42.7072 52.435 40.0172 51.555C38.1572 50.945 35.8672 50.385 33.4372 49.795C25.6172 47.895 16.7372 45.735 13.9672 39.865C12.6672 37.125 12.8772 33.935 14.5972 30.385C17.8972 23.535 25.3472 19.325 35.5872 18.505C49.3272 17.415 63.5372 22.695 69.3772 31.075C73.0672 36.375 73.6972 42.455 71.0672 47.345C70.5372 48.315 69.3272 48.685 68.3572 48.155C67.3872 47.635 67.0271 46.415 67.5471 45.445C69.4471 41.915 68.9072 37.395 66.0972 33.355C61.1072 26.185 48.1272 21.515 35.9172 22.485C30.8472 22.885 21.7972 24.675 18.2172 32.105C17.0372 34.555 16.8372 36.525 17.5972 38.145C19.5572 42.285 27.7872 44.285 34.4072 45.895C36.9072 46.505 39.2772 47.075 41.2872 47.735C45.2172 49.025 48.2972 52.245 49.5272 56.345C50.7772 60.535 49.9372 64.915 47.1972 68.355C46.8072 68.855 46.2172 69.115 45.6272 69.115L45.6172 69.125Z" fill="white"/>
</svg>
